<?xml version="1.0" encoding="utf-8"?>
<!-- Generator: Adobe Illustrator 19.2.1, SVG Export Plug-In . SVG Version: 6.00 Build 0)  -->
<svg version="1.1" id="Layer_1" xmlns="http://www.w3.org/2000/svg" xmlns:xlink="http://www.w3.org/1999/xlink" x="0px" y="0px"
	 viewBox="0 0 553.7 103.3" style="enable-background:new 0 0 553.7 103.3;" xml:space="preserve">
<style type="text/css">
	.st0{fill:#fff;}
</style>
<g>
	<path class="st0" d="M148.3,5.3l-31.2,88.8H91.3L73.5,42.6L54.9,94.1H29.1L0,5.3h26.5l16.9,57.4L64.1,5.3h20.1l19.2,57.4l18.4-57.4
		C121.8,5.3,148.3,5.3,148.3,5.3z"/>
	<path class="st0" d="M231.9,56.5c0,11.9-4.3,22.4-12.9,31.4c-9.8,10.3-23.1,15.4-39.8,15.4s-29.9-5.1-39.7-15.4
		c-8.6-9-12.9-19.5-12.9-31.4c0-5.4,1.2-11,3.5-16.8c2.3-5.7,5.4-10.6,9.3-14.7c9.8-10.2,23.1-15.4,39.8-15.4s30,5.1,39.8,15.4
		C227.6,34.1,231.9,44.5,231.9,56.5z M206.3,56.5c0-6.2-2.1-11.5-6.4-16.1c-5.5-5.8-12.4-8.6-20.6-8.6c-5.7,0-10.8,1.5-15.4,4.4
		c-4.6,2.9-7.9,6.9-9.8,11.8c-1.1,2.8-1.7,5.6-1.7,8.5c0,5.9,2.1,11.2,6.4,15.9c5.3,5.8,12.2,8.7,20.5,8.7c8.4,0,15.2-2.9,20.6-8.6
		C204.1,67.9,206.3,62.6,206.3,56.5z"/>
	<path class="st0" d="M354.1,35.2c0-3.9-2-6.5-6.1-7.8c-1.4-0.4-3.4-0.6-5.8-0.6h-4.7v16.9h4.7c4.4,0,7.6-1,9.5-2.9
		C353.4,39.4,354.1,37.5,354.1,35.2z M361.4,70.1c0-5-3-8-8.9-8.9c-1.9-0.3-5.1-0.4-9.7-0.4h-5.3v18.3h5.7c6.5,0,11.1-0.7,13.7-2
		C360,75.6,361.4,73.3,361.4,70.1z M387.2,71.7c0,6.5-2.1,11.7-6.3,15.8c-6.1,5.9-15.4,8.8-27.8,8.8h-41.2V9.7h38.3
		c18.5,0,27.8,7.5,27.8,22.6c0,4.5-1,8.3-3,11.4c-1.7,2.6-4.3,4.8-7.8,6.6c7.9,1.4,13.3,4.2,16.2,8.3
		C385.9,62.3,387.2,66.7,387.2,71.7z M370.9,51.3H366V48h4.9V51.3z"/>
	<path class="st0" d="M553.7,100.9h-30.9l-21.1-28.2l-22.1,28.2h-31l38.5-46.3L455.7,14h31.5l14.7,22.5L517.2,14h31.5l-32.1,40.5
		L553.7,100.9z"/>
	<path class="st0" d="M318.9,46.8c0,11.9-4.3,22.4-12.9,31.4c-9.8,10.3-23.1,15.4-39.8,15.4s-29.9-5.1-39.7-15.4
		c-8.6-9-12.9-19.5-12.9-31.4c0-5.4,1.2-11,3.5-16.8c2.3-5.7,5.4-10.6,9.3-14.7C236.3,5.1,249.5,0,266.2,0s30,5.1,39.8,15.4
		C314.6,24.4,318.9,34.9,318.9,46.8z M293.3,46.8c0-6.2-2.1-11.5-6.4-16.1c-5.5-5.8-12.4-8.6-20.6-8.6c-5.7,0-10.8,1.5-15.4,4.4
		c-4.6,2.9-7.9,6.9-9.8,11.8c-1.1,2.8-1.7,5.6-1.7,8.5c0,5.9,2.1,11.2,6.4,15.9c5.3,5.8,12.2,8.7,20.5,8.7c8.4,0,15.2-2.9,20.6-8.6
		C291.1,58.2,293.3,52.9,293.3,46.8z"/>
	<path class="st0" d="M476,47c0,11.9-4.3,22.4-12.9,31.4c-9.8,10.3-23.1,15.4-39.8,15.4c-16.7,0-29.9-5.1-39.7-15.4
		c-8.6-9-12.9-19.5-12.9-31.4c0-5.4,1.2-11,3.5-16.8c2.3-5.7,5.4-10.6,9.3-14.7c9.8-10.2,23.1-15.4,39.8-15.4s30,5.1,39.8,15.4
		C471.7,24.5,476,35,476,47z M450.4,47c0-6.2-2.1-11.5-6.4-16.1c-5.5-5.8-12.4-8.6-20.6-8.6c-5.7,0-10.8,1.5-15.4,4.4
		s-7.9,6.9-9.8,11.8c-1.1,2.8-1.7,5.6-1.7,8.5c0,5.9,2.1,11.2,6.4,15.9c5.3,5.8,12.2,8.7,20.5,8.7c8.4,0,15.2-2.9,20.6-8.6
		C448.2,58.4,450.4,53.1,450.4,47z"/>
</g>
</svg>